<svg width="45" height="42" viewBox="0 0 45 42" fill="none" xmlns="http://www.w3.org/2000/svg">
<path d="M22.0786 42C15.5978 41.8324 9.26397 39.4601 3.78573 34.1306C2.62251 32.9973 1.64058 31.5873 0.573497 30.3082C-0.0966904 29.5034 -0.155744 28.6987 0.272737 27.6258C3.11554 20.4571 5.90341 13.2549 8.70914 6.06278C9.33675 4.45167 9.95887 2.8372 10.5947 1.22944C11.1056 -0.0648059 11.4476 -0.203946 12.5325 0.315766C16.7322 2.32755 21.0774 2.96127 25.5545 2.35271C28.01 2.01741 30.4078 1.41553 32.6876 0.196721C33.4965 -0.235814 33.914 0.0290808 34.3589 1.14898C35.5995 4.28625 36.8318 7.42687 38.0559 10.5708C40.2808 16.2709 42.4795 21.971 44.7413 27.6526C45.1533 28.6753 45.0751 29.4029 44.4928 30.2445C41.8148 34.1222 38.4982 36.9102 34.7091 38.9052C30.8267 40.9405 26.7603 41.9329 22.0786 42ZM12.262 3.07694L2.30253 28.6032C12.6383 43.2909 33.2658 42.4091 42.6964 28.5713L32.7343 3.07694C25.8539 5.87165 19.1012 5.89344 12.262 3.07694Z" fill="#D66095"/>
<path d="M30.4587 28.7927C30.515 29.6477 30.6894 30.5211 30.6029 31.3543C30.3433 33.8691 29.0524 35.3913 27.1695 36.2161C25.3567 37.0125 23.5082 36.8381 21.6762 36.3016C17.8816 35.1901 15.032 32.3804 12.7866 28.62C11.1935 25.9493 10.9628 23.0121 12.1081 19.914C10.9696 18.3398 10.5082 16.4856 10.6249 14.3816C10.8515 10.311 13.4238 7.60351 16.7596 7.94551C18.0231 8.0746 19.2234 8.42834 20.3015 9.26659C21.7531 10.3982 22.5482 12.016 22.6554 14.1284C22.6814 14.6448 22.6966 15.1628 22.7103 15.5115C23.5343 15.9876 24.3226 16.2877 24.9529 16.8527C25.6643 17.4931 25.7275 18.5644 25.6122 19.6491C27.5197 20.9199 29.4891 21.4446 31.6109 21.0272C31.852 20.9513 32.0964 20.8914 32.3429 20.8478C33.8453 20.7556 34.8423 22.4287 34.0911 23.9962C33.3756 25.4883 32.4431 26.8345 31.5326 28.1724C31.3005 28.5244 30.7992 28.6083 30.4587 28.7927ZM18.019 23.6693C18.8924 23.7598 19.6368 23.8034 20.3715 23.9241C21.0582 24.0381 21.5251 23.7397 21.9261 23.0859C22.4507 22.2275 23.2706 19.8385 23.3722 18.6918C22.3313 18.3397 22.2983 18.3565 21.933 19.4513C21.6913 20.1755 21.4757 20.9132 21.2134 21.6307C20.9387 22.3801 20.5583 22.6684 19.9581 22.5595C19.2179 22.427 18.4804 22.2661 17.7512 22.0565C17.0879 21.8721 16.7528 21.2669 16.8407 20.5477C16.9285 19.8285 17.39 19.4395 18.1069 19.4999C18.5587 19.5384 19.0078 19.639 19.4624 19.7128C20.1669 18.0363 20.6036 16.3699 20.5322 14.5274C20.4745 13.0387 19.9169 11.9758 18.8402 11.2951C17.9753 10.7673 17.016 10.5119 16.0496 10.5524C14.7573 10.5742 13.763 11.2415 13.2109 12.6816C12.5888 14.3095 12.5366 15.9608 13.3483 17.5434C13.4743 17.7547 13.6324 17.9345 13.8138 18.0732C15.0265 19.1227 15.0622 19.2887 14.2258 20.8578C13.5611 22.1035 13.3524 23.4782 13.704 24.8546C13.9751 25.8873 14.3874 26.8566 14.9235 27.7214C16.0298 29.4932 17.3984 30.9961 18.9583 32.1523C20.7571 33.5266 22.8549 34.203 24.9749 34.092C26.1848 34.0367 27.2959 33.5891 28.0636 32.3317C28.2626 32.0203 28.3967 31.6545 28.4544 31.2658C28.512 30.8771 28.4915 30.4772 28.3945 30.1003C28.2215 29.3979 28.0375 28.7323 27.2862 28.5429C26.7506 28.4088 26.4622 27.7046 26.546 27.1413C26.5868 26.8392 26.7129 26.5641 26.9026 26.3638C27.0923 26.1635 27.3335 26.0506 27.5843 26.0449C28.2599 25.9963 28.9397 26.0348 29.6154 25.9879C29.8819 25.9695 30.2266 25.9141 30.3859 25.7062C30.8102 25.1463 31.1536 24.4941 31.6301 23.7112C29.1306 24.0197 26.936 23.4095 24.8513 22.189C24.4943 22.9585 24.2704 23.738 23.846 24.2829C23.1594 25.1631 23.2074 26.0415 23.5439 27.0273C23.6126 27.2268 23.6812 27.428 23.7375 27.6359C23.9545 28.4523 23.7664 29.1347 23.2541 29.4113C22.6787 29.7198 22.0635 29.4314 21.7613 28.6367C21.5237 28.0131 21.3589 27.3475 21.1433 26.6434L17.8707 26.2125C17.9215 25.3475 17.9709 24.6182 18.019 23.6693Z" fill="#D66095"/>
</svg>
